#!OML:ASF H:\Terrain\Patient Classification 1\Animal2\Wednesday\Animal2.ASF
:FULLY-SPECIFIED
:DEGREES
1796
root 23.0552 17.4962 10.7686 34.2027 -126.996 1.40551
lowerback 16.2927 -0.702139 1.46437
upperback -8.34546 -0.978105 -1.20606
thorax -19.0916 -0.806158 -1.90902
lowerneck 6.65947 8.02179 18.3318
upperneck -21.6573 9.0048 -22.2999
head -5.33204 4.59591 -11.0236
rclavicle -2.46493e-014 4.81059e-014
rhumerus -28.2028 12.5276 -89.1743
rradius 88.7187
rwrist -3.5959
rhand -26.4598 10.2534
rfingers 7.12502
rthumb 0.101649 -19.7263
lclavicle -2.46493e-014 4.81059e-014
lhumerus -53.9044 -8.71589 78.6624
lradius 64.3699
lwrist -7.47247
lhand -3.37765 17.4021
lfingers 7.12502
lthumb 22.3515 46.1291
rfemur -50.3297 2.77851 13.6494
rtibia 41.0876
rfoot -25.7125 0.0159978
rtoes 26.494
lfemur -54.6333 -0.145725 -17.3257
ltibia 43.1583
lfoot -23.7802 3.21248
ltoes -2.49963
1797
root 23.0032 17.4599 10.7687 34.4973 -126.994 0.862444
lowerback 16.0445 -0.791908 1.41936
upperback -8.41228 -1.14296 -1.30846
thorax -19.0239 -0.887361 -1.95074
lowerneck 6.96582 8.00012 18.5076
upperneck -21.7008 9.03594 -22.4187
head -5.37498 4.62455 -11.1216
rclavicle 4.01545e-014 8.94531e-014
rhumerus -28.8903 12.1516 -89.2877
rradius 87.2158
rwrist -2.95343
rhand -26.5311 9.91895
rfingers 7.12502
rthumb 0.0327513 -20.0608
lclavicle 4.01545e-014 8.94531e-014
lhumerus -53.5647 -8.90738 78.7741
lradius 65.0873
lwrist -6.62437
lhand -4.45385 16.8061
lfingers 7.12502
lthumb 21.3181 45.6535
rfemur -50.5277 2.34394 13.3566
rtibia 42.024
rfoot -26.264 0.579605
rtoes 28.1327
lfemur -54.5349 -0.150462 -17.8927
ltibia 43.5123
lfoot -23.9536 2.82434
ltoes -1.6919
1798
root 22.9546 17.4345 10.7392 34.1254 -127.26 0.601177
lowerback 16.2317 -0.78267 1.04835
upperback -8.40616 -1.23499 -1.38641
thorax -19.1378 -0.889315 -1.80161
lowerneck 7.10017 7.99021 18.5529
upperneck -21.5336 9.1074 -22.2833
head -5.34299 4.66115 -11.075
rclavicle -1.5704e-014 -1.35174e-014
rhumerus -29.6939 11.9013 -89.5101
rradius 85.7326
rwrist -2.84079
rhand -26.4634 9.4782
rfingers 7.12502
rthumb 0.0981784 -20.5015
lclavicle -1.5704e-014 -1.35174e-014
lhumerus -53.307 -9.1204 78.7698
lradius 65.889
lwrist -5.505
lhand -5.64009 16.269
lfingers 7.12502
lthumb 20.1783 45.241
rfemur -50.2263 2.61515 13.0629
rtibia 43.1003
rfoot -26.6952 -0.201285
rtoes 25.3081
lfemur -53.821 0.205532 -18.371
ltibia 43.8998
lfoot -24.3152 2.49102
ltoes -1.34856
1799
root 22.903 17.4034 10.7165 33.628 -127.338 0.512242
lowerback 16.3595 -0.850104 1.00668
upperback -8.40015 -1.34419 -1.42117
thorax -19.221 -0.935949 -1.78278
lowerneck 7.19036 7.97913 18.3773
upperneck -21.3273 9.16092 -22.0087
head -5.31898 4.69252 -10.9347
rclavicle 9.38264e-014 -5.92378e-014
rhumerus -30.5781 11.632 -89.7156
rradius 84.2249
rwrist -2.95403
rhand -26.1778 9.10728
rfingers 7.12502
rthumb 0.37405 -20.8721
lclavicle 9.38264e-014 -5.92378e-014
lhumerus -52.9373 -9.23025 78.7502
lradius 66.672
lwrist -4.33486
lhand -7.36287 15.8
lfingers 7.12502
lthumb 18.5218 44.9382
rfemur -50.0348 2.85951 12.8734
rtibia 44.3893
rfoot -26.6787 -0.581542
rtoes 22.9476
lfemur -53.2186 0.511827 -18.6844
ltibia 44.3346
lfoot -24.6952 2.17711
ltoes -1.8679
1800
root 22.8467 17.365 10.7038 33.216 -127.444 0.443957
lowerback 16.3456 -0.90416 1.00268
upperback -8.41458 -1.42599 -1.44109
thorax -19.2353 -0.974626 -1.77715
lowerneck 7.32333 7.97484 18.3427
upperneck -21.0667 9.22646 -21.9409
head -5.25889 4.74042 -10.892
rclavicle 3.37934e-014 3.02153e-014
rhumerus -31.4446 11.4076 -89.8175
rradius 82.6225
rwrist -3.00405
rhand -25.7557 8.46803
rfingers 7.12502
rthumb 0.781675 -21.5103
lclavicle 3.37934e-014 3.02153e-014
lhumerus -52.3391 -9.17985 78.7015
lradius 67.3931
lwrist -3.36491
lhand -9.26084 15.2405
lfingers 7.12502
lthumb 16.6953 44.5425
rfemur -50.1056 2.81391 12.6956
rtibia 45.7913
rfoot -26.7508 0.504754
rtoes 24.9475
lfemur -52.7406 0.683954 -18.9546
ltibia 44.7857
lfoot -24.9059 2.31524
ltoes -4.11734
1801
root 22.7946 17.3138 10.6987 33.845 -127.236 -0.356763
lowerback 15.8164 -1.03405 0.869632
upperback -8.55119 -1.67401 -1.52765
thorax -19.0706 -1.08393 -1.72611
lowerneck 7.42193 7.93495 18.6414
upperneck -20.7202 9.23323 -22.258
head -5.12945 4.76628 -11.0379
rclavicle 8.96519e-014 -5.96354e-014
rhumerus -32.2434 11.0036 -89.706
rradius 80.9558
rwrist -2.665
rhand -25.2854 7.57873
rfingers 7.12502
rthumb 1.23593 -22.3974
lclavicle 8.96519e-014 -5.96354e-014
lhumerus -51.5046 -9.28661 78.7515
lradius 67.9982
lwrist -2.46505
lhand -10.3323 14.8519
lfingers 7.12502
lthumb 15.6636 44.2378
rfemur -50.7675 2.29238 12.2072
rtibia 47.4431
rfoot -26.8261 0.872701
rtoes 24.6748
lfemur -52.8777 0.379197 -19.5008
ltibia 45.2588
lfoot -24.9166 2.68022
ltoes -7.48588
1802
root 22.7374 17.2901 10.6561 33.2835 -127.314 -0.885937
lowerback 16.2057 -0.991605 0.310404
upperback -8.41529 -1.74526 -1.55336
thorax -19.1375 -1.04009 -1.41361
lowerneck 7.73441 7.86114 18.8194
upperneck -20.6793 9.182 -22.5007
head -5.15596 4.76682 -11.1777
rclavicle 4.37326e-015 8.74653e-014
rhumerus -33.0354 10.5149 -89.5364
rradius 79.1487
rwrist -2.38773
rhand -25.0103 6.92578
rfingers 7.12502
rthumb 1.50159 -23.0487
lclavicle 4.37326e-015 8.74653e-014
lhumerus -50.6025 -9.65219 78.9061
lradius 68.4738
lwrist -1.59023
lhand -11.3308 14.3745
lfingers 7.12502
lthumb 14.7018 43.8332
rfemur -50.3065 2.62952 11.7209
rtibia 49.2826
rfoot -26.74 0.37801
rtoes 22.108
lfemur -51.7264 0.492882 -19.9715
ltibia 45.8198
lfoot -25.5839 2.6353
ltoes -9.01152
1803
root 22.6686 17.2642 10.6167 32.7032 -127.145 -1.437
lowerback 16.4922 -1.10823 0.0739791
upperback -8.23601 -1.95478 -1.57585
thorax -19.0944 -1.09724 -1.23563
lowerneck 8.15464 7.83933 18.6878
upperneck -20.8154 9.21253 -22.3821
head -5.28392 4.8016 -11.1522
rclavicle 4.35338e-014 9.93923e-014
rhumerus -33.7972 10.3715 -89.5891
rradius 77.1692
rwrist -3.0348
rhand -24.8404 6.79189
rfingers 7.12502
rthumb 1.66569 -23.1814
lclavicle 4.35338e-014 9.93923e-014
lhumerus -49.6583 -9.74889 78.8686
lradius 68.9769
lwrist -1.09967
lhand -12.4293 13.6747
lfingers 7.12502
lthumb 13.6433 43.2076
rfemur -49.8479 2.88076 11.2713
rtibia 51.3632
rfoot -26.4459 0.30182
rtoes 20.4508
lfemur -50.5299 0.284942 -20.2613
ltibia 46.415
lfoot -26.2262 2.63796
ltoes -9.95214
1804
root 22.6104 17.1902 10.6408 32.8592 -127.346 -1.37358
lowerback 15.7708 -1.17623 0.458534
upperback -8.4676 -1.98063 -1.59935
thorax -18.9321 -1.17248 -1.4801
lowerneck 8.45589 7.88755 18.3962
upperneck -20.7737 9.32402 -22.2115
head -5.33236 4.8827 -11.0553
rclavicle 2.72335e-014 5.24792e-014
rhumerus -34.682 10.3235 -89.7499
rradius 75.1275
rwrist -3.63189
rhand -24.7245 7.06442
rfingers 7.12502
rthumb 1.77769 -22.9079
lclavicle 2.72335e-014 5.24792e-014
lhumerus -48.814 -9.47159 78.717
lradius 69.8359
lwrist -0.880669
lhand -12.9833 13.4696
lfingers 7.12502
lthumb 13.1093 43.0375
rfemur -51.438 2.76012 10.8612
rtibia 53.7563
rfoot -25.4174 1.46582
rtoes 19.9938
lfemur -51.0951 0.106232 -20.4165
ltibia 47.1918
lfoot -26.4123 2.79043
ltoes -8.99495
1805
root 22.5555 17.1297 10.6365 32.9834 -127.689 -1.47412
lowerback 15.1343 -1.15192 0.34939
upperback -8.68667 -1.99926 -1.6057
thorax -18.7879 -1.18022 -1.42623
lowerneck 8.58088 7.94211 18.2237
upperneck -20.4047 9.45145 -22.1865
head -5.22906 4.97636 -10.993
rclavicle -7.41467e-014 -7.95139e-015
rhumerus -35.6854 10.0972 -89.8218
rradius 72.936
rwrist -3.39871
rhand -25.379 7.23645
rfingers 7.12502
rthumb 1.14549 -22.7402
lclavicle -7.41467e-014 -7.95139e-015
lhumerus -47.9142 -9.28159 78.663
lradius 70.7276
lwrist -0.5368
lhand -13.6176 13.7999
lfingers 7.12502
lthumb 12.4978 43.4062
rfemur -52.9163 2.83562 10.327
rtibia 56.2424
rfoot -24.0224 2.56496
rtoes 19.6807
lfemur -51.193 0.125227 -20.72
ltibia 47.6148
lfoot -26.6796 2.18146
ltoes -5.11962
1806
root 22.5015 17.0688 10.632 33.2555 -128.238 -1.62103
lowerback 14.3713 -1.02358 0.0839078
upperback -8.94144 -1.92776 -1.68496
thorax -18.5985 -1.13875 -1.39803
lowerneck 8.55196 8.00111 18.146
upperneck -19.8523 9.602 -22.1513
head -5.03446 5.07124 -10.9182
rclavicle -6.91771e-014 3.10104e-014
rhumerus -36.5137 9.84735 -89.7887
rradius 70.5602
rwrist -2.9608
rhand -26.0407 7.39778
rfingers 7.12502
rthumb 0.506414 -22.5814
lclavicle -6.91771e-014 3.10104e-014
lhumerus -46.7543 -9.20464 78.629
lradius 71.3697
lwrist -0.0880713
lhand -14.5909 13.9466
lfingers 7.12502
lthumb 11.5593 43.6079
rfemur -54.8241 2.91384 9.67161
rtibia 58.9178
rfoot -22.1761 2.97562
rtoes 18.4433
lfemur -51.3963 0.217511 -21.1521
ltibia 48.0119
lfoot -27.0677 1.86178
ltoes -2.65709
